<svg xmlns="http://www.w3.org/2000/svg" xmlns:xlink="http://www.w3.org/1999/xlink" width="100" zoomAndPan="magnify" viewBox="0 0 75 74.999997" height="100" preserveAspectRatio="xMidYMid meet" version="1.0"><defs><g/><clipPath id="461971f6b5"><path d="M 38 17 L 49 17 L 49 47 L 38 47 Z M 38 17 " clip-rule="nonzero"/></clipPath><clipPath id="b36f07af84"><path d="M 48.027344 46.832031 L 38.519531 46.867188 L 38.410156 17.558594 L 47.917969 17.523438 Z M 48.027344 46.832031 " clip-rule="nonzero"/></clipPath><clipPath id="c6c0255598"><path d="M 48.027344 46.832031 L 38.519531 46.867188 L 38.410156 17.582031 L 47.917969 17.546875 Z M 48.027344 46.832031 " clip-rule="nonzero"/></clipPath><clipPath id="010c794c3e"><path d="M 27 37 L 49 37 L 49 47 L 27 47 Z M 27 37 " clip-rule="nonzero"/></clipPath><clipPath id="317e3411ec"><path d="M 47.992188 37.292969 L 48.027344 46.804688 L 27.152344 46.878906 L 27.117188 37.371094 Z M 47.992188 37.292969 " clip-rule="nonzero"/></clipPath><clipPath id="21d3e4f1c8"><path d="M 47.992188 37.292969 L 48.027344 46.804688 L 27.167969 46.878906 L 27.132812 37.371094 Z M 47.992188 37.292969 " clip-rule="nonzero"/></clipPath><clipPath id="d9133d406c"><path d="M 31 25 L 48 25 L 48 36 L 31 36 Z M 31 25 " clip-rule="nonzero"/></clipPath><clipPath id="0978e28ef1"><path d="M 47.515625 25.699219 L 47.550781 35.207031 L 31.539062 35.265625 L 31.503906 25.757812 Z M 47.515625 25.699219 " clip-rule="nonzero"/></clipPath><clipPath id="2bb14293e0"><path d="M 47.515625 25.699219 L 47.550781 35.207031 L 31.570312 35.265625 L 31.535156 25.757812 Z M 47.515625 25.699219 " clip-rule="nonzero"/></clipPath><clipPath id="3d62c4b363"><path d="M 3.804688 17.582031 L 13.3125 17.582031 L 13.3125 46.867188 L 3.804688 46.867188 Z M 3.804688 17.582031 " clip-rule="nonzero"/></clipPath><clipPath id="7801b11517"><path d="M 3.804688 37.371094 L 25.421875 37.371094 L 25.421875 46.882812 L 3.804688 46.882812 Z M 3.804688 37.371094 " clip-rule="nonzero"/></clipPath><clipPath id="52e20719e0"><path d="M 15.910156 17.582031 L 25.421875 17.582031 L 25.421875 46.867188 L 15.910156 46.867188 Z M 15.910156 17.582031 " clip-rule="nonzero"/></clipPath><clipPath id="f7418c5e34"><path d="M 61.683594 17.558594 L 71.191406 17.558594 L 71.191406 46.84375 L 61.683594 46.84375 Z M 61.683594 17.558594 " clip-rule="nonzero"/></clipPath><clipPath id="0091a8578c"><path d="M 49.574219 17.554688 L 71.191406 17.554688 L 71.191406 27.0625 L 49.574219 27.0625 Z M 49.574219 17.554688 " clip-rule="nonzero"/></clipPath><clipPath id="6a8483540c"><path d="M 49.574219 17.558594 L 59.082031 17.558594 L 59.082031 46.84375 L 49.574219 46.84375 Z M 49.574219 17.558594 " clip-rule="nonzero"/></clipPath></defs><rect x="-7.5" width="90" fill="#ffffff" y="-7.5" height="89.999996" fill-opacity="1"/><rect x="-7.5" width="90" fill="#1976d2" y="-7.5" height="89.999996" fill-opacity="1"/><g clip-path="url(#461971f6b5)"><g clip-path="url(#b36f07af84)"><g clip-path="url(#c6c0255598)"><path fill="#ffffff" d="M 48.027344 46.832031 L 38.519531 46.867188 L 38.410156 17.597656 L 47.917969 17.5625 Z M 48.027344 46.832031 " fill-opacity="1" fill-rule="nonzero"/></g></g></g><g clip-path="url(#010c794c3e)"><g clip-path="url(#317e3411ec)"><g clip-path="url(#21d3e4f1c8)"><path fill="#ffffff" d="M 47.992188 37.292969 L 48.027344 46.804688 L 27.152344 46.878906 L 27.117188 37.371094 Z M 47.992188 37.292969 " fill-opacity="1" fill-rule="nonzero"/></g></g></g><g clip-path="url(#d9133d406c)"><g clip-path="url(#0978e28ef1)"><g clip-path="url(#2bb14293e0)"><path fill="#ffffff" d="M 47.515625 25.699219 L 47.550781 35.207031 L 31.574219 35.265625 L 31.539062 25.757812 Z M 47.515625 25.699219 " fill-opacity="1" fill-rule="nonzero"/></g></g></g><g clip-path="url(#3d62c4b363)"><path fill="#ffffff" d="M 13.3125 46.867188 L 3.804688 46.867188 L 3.804688 17.597656 L 13.3125 17.597656 Z M 13.3125 46.867188 " fill-opacity="1" fill-rule="nonzero"/></g><g clip-path="url(#7801b11517)"><path fill="#ffffff" d="M 25.421875 37.371094 L 25.421875 46.882812 L 3.800781 46.882812 L 3.800781 37.371094 Z M 25.421875 37.371094 " fill-opacity="1" fill-rule="nonzero"/></g><g clip-path="url(#52e20719e0)"><path fill="#ffffff" d="M 25.421875 46.867188 L 15.910156 46.867188 L 15.910156 17.597656 L 25.421875 17.597656 Z M 25.421875 46.867188 " fill-opacity="1" fill-rule="nonzero"/></g><g clip-path="url(#f7418c5e34)"><path fill="#ffffff" d="M 61.683594 17.558594 L 71.191406 17.558594 L 71.191406 46.832031 L 61.683594 46.832031 Z M 61.683594 17.558594 " fill-opacity="1" fill-rule="nonzero"/></g><g clip-path="url(#0091a8578c)"><path fill="#ffffff" d="M 49.574219 27.0625 L 49.574219 17.554688 L 71.195312 17.554688 L 71.195312 27.0625 Z M 49.574219 27.0625 " fill-opacity="1" fill-rule="nonzero"/></g><g clip-path="url(#6a8483540c)"><path fill="#ffffff" d="M 49.574219 17.558594 L 59.082031 17.558594 L 59.082031 46.832031 L 49.574219 46.832031 Z M 49.574219 17.558594 " fill-opacity="1" fill-rule="nonzero"/></g><g fill="#ffffff" fill-opacity="1"><g transform="translate(18.483087, 55.808361)"><g><path d="M 4.21875 -4.984375 L 4.21875 -1.703125 C 4.21875 -1.148438 4.046875 -0.71875 3.703125 -0.40625 C 3.359375 -0.09375 2.890625 0.0625 2.296875 0.0625 C 1.722656 0.0625 1.265625 -0.0859375 0.921875 -0.390625 C 0.578125 -0.703125 0.398438 -1.125 0.390625 -1.65625 L 0.390625 -4.984375 L 1.421875 -4.984375 L 1.421875 -1.6875 C 1.421875 -1.363281 1.5 -1.125 1.65625 -0.96875 C 1.8125 -0.820312 2.023438 -0.75 2.296875 -0.75 C 2.878906 -0.75 3.175781 -1.054688 3.1875 -1.671875 L 3.1875 -4.984375 Z M 4.21875 -4.984375 "/></g></g><g transform="translate(23.090566, 55.808361)"><g><path d="M 1.28125 -3.703125 L 1.3125 -3.265625 C 1.582031 -3.597656 1.9375 -3.765625 2.375 -3.765625 C 2.769531 -3.765625 3.0625 -3.648438 3.25 -3.421875 C 3.445312 -3.191406 3.546875 -2.847656 3.546875 -2.390625 L 3.546875 0 L 2.5625 0 L 2.5625 -2.359375 C 2.5625 -2.578125 2.515625 -2.734375 2.421875 -2.828125 C 2.335938 -2.921875 2.1875 -2.96875 1.96875 -2.96875 C 1.695312 -2.96875 1.488281 -2.847656 1.34375 -2.609375 L 1.34375 0 L 0.359375 0 L 0.359375 -3.703125 Z M 1.28125 -3.703125 "/></g></g><g transform="translate(27.011025, 55.808361)"><g><path d="M 3.4375 -2.03125 L 1.46875 -2.03125 L 1.46875 0 L 0.4375 0 L 0.4375 -4.984375 L 3.6875 -4.984375 L 3.6875 -4.140625 L 1.46875 -4.140625 L 1.46875 -2.859375 L 3.4375 -2.859375 Z M 3.4375 -2.03125 "/></g></g><g transform="translate(30.846033, 55.808361)"><g><path d="M 1.421875 0 L 0.4375 0 L 0.4375 -5.25 L 1.421875 -5.25 Z M 1.421875 0 "/></g></g><g transform="translate(32.702014, 55.808361)"><g><path d="M 1.421875 0 L 0.4375 0 L 0.4375 -3.703125 L 1.421875 -3.703125 Z M 0.375 -4.65625 C 0.375 -4.800781 0.421875 -4.921875 0.515625 -5.015625 C 0.617188 -5.117188 0.753906 -5.171875 0.921875 -5.171875 C 1.085938 -5.171875 1.222656 -5.117188 1.328125 -5.015625 C 1.429688 -4.921875 1.484375 -4.800781 1.484375 -4.65625 C 1.484375 -4.507812 1.429688 -4.382812 1.328125 -4.28125 C 1.222656 -4.1875 1.085938 -4.140625 0.921875 -4.140625 C 0.753906 -4.140625 0.617188 -4.1875 0.515625 -4.28125 C 0.421875 -4.382812 0.375 -4.507812 0.375 -4.65625 Z M 0.375 -4.65625 "/></g></g><g transform="translate(34.557994, 55.808361)"><g><path d="M 3.703125 -1.8125 C 3.703125 -1.238281 3.570312 -0.78125 3.3125 -0.4375 C 3.0625 -0.101562 2.710938 0.0625 2.265625 0.0625 C 1.898438 0.0625 1.601562 -0.0664062 1.375 -0.328125 L 1.375 1.421875 L 0.375 1.421875 L 0.375 -3.703125 L 1.296875 -3.703125 L 1.328125 -3.34375 C 1.566406 -3.625 1.878906 -3.765625 2.265625 -3.765625 C 2.722656 -3.765625 3.078125 -3.59375 3.328125 -3.25 C 3.578125 -2.914062 3.703125 -2.453125 3.703125 -1.859375 Z M 2.71875 -1.890625 C 2.71875 -2.234375 2.65625 -2.5 2.53125 -2.6875 C 2.414062 -2.875 2.238281 -2.96875 2 -2.96875 C 1.695312 -2.96875 1.488281 -2.847656 1.375 -2.609375 L 1.375 -1.09375 C 1.488281 -0.851562 1.703125 -0.734375 2.015625 -0.734375 C 2.484375 -0.734375 2.71875 -1.117188 2.71875 -1.890625 Z M 2.71875 -1.890625 "/></g></g><g transform="translate(38.49896, 55.808361)"><g/></g><g transform="translate(40.242146, 55.808361)"><g><path d="M 4.34375 -1.65625 C 4.3125 -1.125 4.113281 -0.703125 3.75 -0.390625 C 3.394531 -0.0859375 2.925781 0.0625 2.34375 0.0625 C 1.707031 0.0625 1.207031 -0.148438 0.84375 -0.578125 C 0.476562 -1.003906 0.296875 -1.59375 0.296875 -2.34375 L 0.296875 -2.65625 C 0.296875 -3.125 0.378906 -3.539062 0.546875 -3.90625 C 0.710938 -4.269531 0.953125 -4.550781 1.265625 -4.75 C 1.578125 -4.945312 1.941406 -5.046875 2.359375 -5.046875 C 2.929688 -5.046875 3.394531 -4.890625 3.75 -4.578125 C 4.101562 -4.273438 4.304688 -3.84375 4.359375 -3.28125 L 3.328125 -3.28125 C 3.304688 -3.601562 3.21875 -3.835938 3.0625 -3.984375 C 2.90625 -4.128906 2.671875 -4.203125 2.359375 -4.203125 C 2.015625 -4.203125 1.757812 -4.078125 1.59375 -3.828125 C 1.425781 -3.585938 1.335938 -3.210938 1.328125 -2.703125 L 1.328125 -2.328125 C 1.328125 -1.785156 1.410156 -1.390625 1.578125 -1.140625 C 1.742188 -0.890625 2 -0.765625 2.34375 -0.765625 C 2.664062 -0.765625 2.90625 -0.835938 3.0625 -0.984375 C 3.21875 -1.128906 3.304688 -1.351562 3.328125 -1.65625 Z M 4.34375 -1.65625 "/></g></g><g transform="translate(44.822281, 55.808361)"><g><path d="M 0.21875 -1.890625 C 0.21875 -2.253906 0.289062 -2.578125 0.4375 -2.859375 C 0.582031 -3.148438 0.785156 -3.375 1.046875 -3.53125 C 1.316406 -3.6875 1.625 -3.765625 1.96875 -3.765625 C 2.46875 -3.765625 2.875 -3.609375 3.1875 -3.296875 C 3.507812 -2.992188 3.6875 -2.582031 3.71875 -2.0625 L 3.734375 -1.8125 C 3.734375 -1.238281 3.570312 -0.78125 3.25 -0.4375 C 2.9375 -0.101562 2.507812 0.0625 1.96875 0.0625 C 1.4375 0.0625 1.007812 -0.101562 0.6875 -0.4375 C 0.375 -0.78125 0.21875 -1.25 0.21875 -1.84375 Z M 1.21875 -1.8125 C 1.21875 -1.457031 1.28125 -1.1875 1.40625 -1 C 1.539062 -0.820312 1.734375 -0.734375 1.984375 -0.734375 C 2.222656 -0.734375 2.40625 -0.820312 2.53125 -1 C 2.664062 -1.1875 2.734375 -1.484375 2.734375 -1.890625 C 2.734375 -2.234375 2.664062 -2.5 2.53125 -2.6875 C 2.40625 -2.875 2.21875 -2.96875 1.96875 -2.96875 C 1.726562 -2.96875 1.539062 -2.875 1.40625 -2.6875 C 1.28125 -2.5 1.21875 -2.207031 1.21875 -1.8125 Z M 1.21875 -1.8125 "/></g></g><g transform="translate(48.780338, 55.808361)"><g><path d="M 0.21875 -1.875 C 0.21875 -2.445312 0.347656 -2.90625 0.609375 -3.25 C 0.867188 -3.59375 1.222656 -3.765625 1.671875 -3.765625 C 2.035156 -3.765625 2.332031 -3.628906 2.5625 -3.359375 L 2.5625 -5.25 L 3.5625 -5.25 L 3.5625 0 L 2.671875 0 L 2.625 -0.390625 C 2.375 -0.0859375 2.054688 0.0625 1.671875 0.0625 C 1.234375 0.0625 0.878906 -0.101562 0.609375 -0.4375 C 0.347656 -0.78125 0.21875 -1.257812 0.21875 -1.875 Z M 1.21875 -1.8125 C 1.21875 -1.457031 1.273438 -1.1875 1.390625 -1 C 1.515625 -0.820312 1.691406 -0.734375 1.921875 -0.734375 C 2.222656 -0.734375 2.4375 -0.863281 2.5625 -1.125 L 2.5625 -2.578125 C 2.4375 -2.835938 2.222656 -2.96875 1.921875 -2.96875 C 1.453125 -2.96875 1.21875 -2.582031 1.21875 -1.8125 Z M 1.21875 -1.8125 "/></g></g><g transform="translate(52.724723, 55.808361)"><g><path d="M 2.078125 0.0625 C 1.535156 0.0625 1.09375 -0.101562 0.75 -0.4375 C 0.414062 -0.769531 0.25 -1.210938 0.25 -1.765625 L 0.25 -1.859375 C 0.25 -2.222656 0.316406 -2.550781 0.453125 -2.84375 C 0.597656 -3.144531 0.800781 -3.375 1.0625 -3.53125 C 1.332031 -3.6875 1.632812 -3.765625 1.96875 -3.765625 C 2.476562 -3.765625 2.878906 -3.601562 3.171875 -3.28125 C 3.460938 -2.96875 3.609375 -2.519531 3.609375 -1.9375 L 3.609375 -1.53125 L 1.25 -1.53125 C 1.28125 -1.289062 1.375 -1.097656 1.53125 -0.953125 C 1.695312 -0.804688 1.898438 -0.734375 2.140625 -0.734375 C 2.523438 -0.734375 2.820312 -0.867188 3.03125 -1.140625 L 3.53125 -0.59375 C 3.375 -0.382812 3.171875 -0.222656 2.921875 -0.109375 C 2.671875 0.00390625 2.390625 0.0625 2.078125 0.0625 Z M 1.96875 -2.96875 C 1.769531 -2.96875 1.609375 -2.898438 1.484375 -2.765625 C 1.367188 -2.640625 1.296875 -2.453125 1.265625 -2.203125 L 2.625 -2.203125 L 2.625 -2.28125 C 2.625 -2.5 2.566406 -2.664062 2.453125 -2.78125 C 2.335938 -2.90625 2.175781 -2.96875 1.96875 -2.96875 Z M 1.96875 -2.96875 "/></g></g></g></svg>